<?xml version="1.0" encoding="UTF-8" standalone="no"?>
<!DOCTYPE svg PUBLIC "-//W3C//DTD SVG 1.1//EN" "http://www.w3.org/Graphics/SVG/1.1/DTD/svg11.dtd">
<!-- Created with Vectornator (http://vectornator.io/) -->
<svg height="100%" stroke-miterlimit="10" style="fill-rule:nonzero;clip-rule:evenodd;stroke-linecap:round;stroke-linejoin:round;" version="1.1" viewBox="0 0 679 138" width="100%" xml:space="preserve" xmlns="http://www.w3.org/2000/svg" xmlns:vectornator="http://vectornator.io" xmlns:xlink="http://www.w3.org/1999/xlink">
<defs/>
<g id="shape-4229bead-d4ca-80d8-8003-0f46efb2f7f8" vectornator:layerName="shape-4229bead-d4ca-80d8-8003-0f46efb2f7f8">
<g opacity="1" vectornator:layerName="shape-11445699-4ed4-80c5-8002-dd62451e3b09">
<g opacity="1" vectornator:layerName="rect">
<clipPath clip-rule="nonzero" id="ClipPath">
<path d="M0 0L679 0L679 0L679 88L679 88L0 88L0 88L0 0L0 0Z"/>
</clipPath>
<g clip-path="url(#ClipPath)">
<path d="M81.197 67.419C78.368 65.148 75.539 62.735 72.71 60.466C71.578 59.472 71.436 59.328 72.285 58.053C73.983 55.07 75.114 51.95 75.822 48.682C76.953 43.574 76.812 38.606 75.114 33.639C74.549 31.935 73.7 30.516 72.851 28.955C72.568 28.529 72.427 28.103 72.851 27.677C74.124 26.258 75.397 24.839 76.812 23.561C78.792 21.432 80.914 19.445 82.753 17.316C84.875 14.903 84.309 12.065 81.621 10.503C80.914 9.935 80.065 9.51 79.217 9.084C77.095 7.948 74.973 8.09 72.993 8.942C71.295 9.652 70.163 10.787 68.89 12.206L61.817 19.019C61.393 19.303 61.251 19.303 60.827 19.303C60.403 19.303 59.978 19.161 59.412 19.161C41.73 16.323 31.828 26.684 31.828 26.684C31.404 27.11 30.979 27.11 30.555 26.684C29.282 25.69 28.009 24.839 26.877 23.845C24.897 22.284 23.482 22 21.36 23.277C19.946 24.129 19.238 25.406 18.248 26.542C17.682 27.11 17.258 27.819 16.834 28.387C15.702 30.232 15.843 32.077 17.399 33.639C18.672 34.916 19.946 36.194 21.36 37.471C21.926 37.897 21.926 38.323 21.643 39.032C21.219 39.884 20.794 40.594 20.511 41.445C17.399 48.542 16.551 55.779 19.097 63.303C19.521 64.439 19.238 65.004 18.531 65.858C16.551 67.987 14.429 69.971 12.731 72.245C11.175 74.229 11.175 76.645 12.59 78.774C13.156 79.484 13.721 80.194 14.287 80.903C15.843 82.747 18.39 82.747 20.087 81.187C21.926 79.484 23.624 77.639 25.463 75.935C27.584 73.95 26.877 73.95 29.565 75.369C33.95 77.64 38.618 78.35 43.569 77.924C48.803 77.498 53.471 75.65 57.998 73.098C59.271 72.389 59.412 72.389 60.544 73.382L62.383 75.085C64.222 76.789 66.061 78.489 67.9 80.053C70.446 82.182 74.266 82.324 76.953 80.479C78.792 79.2 80.348 77.64 81.904 76.079C84.168 73.521 84.168 69.832 81.197 67.419ZM56.017 58.761C49.369 65.574 37.769 68.129 31.545 61.455C25.18 54.503 27.443 45.563 32.111 39.174C36.779 32.787 48.52 25.974 57.432 32.929C65.92 39.458 62.666 51.806 56.017 58.761Z" fill="#d0dd2a" fill-rule="nonzero" opacity="1" stroke="none" vectornator:layerName="path"/>
</g>
</g>
<g opacity="1" vectornator:layerName="rect">
<clipPath clip-rule="nonzero" id="ClipPath_2">
<path d="M0 0L679 0L679 0L679 88L679 88L0 88L0 88L0 0L0 0Z"/>
</clipPath>
<g clip-path="url(#ClipPath_2)">
<path d="M125.332 18.594C126.039 19.303 126.605 20.155 127.03 21.29L138.205 60.039L149.521 21.29C149.804 20.155 150.37 19.303 151.078 18.594C151.785 17.884 152.775 17.6 154.048 17.6C155.321 17.6 156.311 17.884 157.16 18.594C158.009 19.303 158.575 20.297 158.858 21.432L166.779 69.548L160.555 70.684L154.048 25.548L141.317 68.555L135.093 68.555L122.503 25.548L116.137 68.129C115.996 68.981 115.713 69.69 115.147 70.258C114.581 70.684 113.874 70.968 112.884 70.968C112.035 70.968 111.328 70.684 110.762 70.115C110.196 69.548 109.913 68.839 109.913 67.986L109.913 66.85L117.552 21.431C117.835 20.153 118.401 19.302 119.249 18.592C120.098 17.882 121.23 17.599 122.361 17.599C123.493 17.6 124.625 18.026 125.332 18.594Z" fill="#ffffff" fill-rule="nonzero" opacity="1" stroke="none" vectornator:layerName="path"/>
</g>
</g>
<g opacity="1" vectornator:layerName="rect">
<clipPath clip-rule="nonzero" id="ClipPath_3">
<path d="M0 0L679 0L679 0L679 88L679 88L0 88L0 88L0 0L0 0Z"/>
</clipPath>
<g clip-path="url(#ClipPath_3)">
<path d="M194.364 18.594C195.071 19.303 195.637 20.297 196.061 21.432L214.168 69.265L207.944 71.111L203.417 59.187L179.369 59.187L175.691 68.982C175.408 69.547 175.125 70.118 174.56 70.542C173.994 70.968 173.428 71.111 172.721 71.111C171.872 71.111 171.165 70.827 170.599 70.257C170.033 69.692 169.75 68.982 169.75 68.128C169.75 67.563 169.891 66.992 170.174 66.426L186.866 21.574C187.291 20.582 187.715 19.587 188.423 18.877C189.13 18.026 189.979 17.743 191.252 17.743C192.666 17.6 193.656 18.026 194.364 18.594ZM201.578 53.652L191.393 25.123L181.067 53.652L201.578 53.652Z" fill="#ffffff" fill-rule="nonzero" opacity="1" stroke="none" vectornator:layerName="path"/>
</g>
</g>
<g opacity="1" vectornator:layerName="rect">
<clipPath clip-rule="nonzero" id="ClipPath_4">
<path d="M0 0L679 0L679 0L679 88L679 88L0 88L0 88L0 0L0 0Z"/>
</clipPath>
<g clip-path="url(#ClipPath_4)">
<path d="M218.412 20.723C218.412 19.871 218.695 19.161 219.26 18.594C219.826 18.026 220.534 17.6 221.382 17.6C222.231 17.6 222.938 17.884 223.646 18.452C224.211 19.019 224.636 19.729 224.636 20.723L224.636 40.31L248.542 17.742L253.069 21.858L230.577 42.865L254.059 65.858C254.766 66.568 255.191 67.421 255.191 68.271C255.191 69.124 254.908 69.834 254.342 70.258C253.776 70.824 253.069 71.11 252.362 71.11C251.371 71.11 250.523 70.684 249.815 69.974L224.636 45.419L224.636 70.4L218.412 70.4L218.412 20.723Z" fill="#ffffff" fill-rule="nonzero" opacity="1" stroke="none" vectornator:layerName="path"/>
</g>
</g>
<g opacity="1" vectornator:layerName="rect">
<clipPath clip-rule="nonzero" id="ClipPath_5">
<path d="M0 0L679 0L679 0L679 88L679 88L0 88L0 88L0 0L0 0Z"/>
</clipPath>
<g clip-path="url(#ClipPath_5)">
<path d="M260.708 20.865C260.708 20.013 260.991 19.303 261.698 18.594C262.264 18.026 263.113 17.6 263.961 17.6C264.81 17.6 265.517 17.884 266.083 18.594C266.649 19.161 266.932 20.013 266.932 20.865L266.932 70.4L260.708 70.4L260.708 20.865Z" fill="#ffffff" fill-rule="nonzero" opacity="1" stroke="none" vectornator:layerName="path"/>
</g>
</g>
<g opacity="1" vectornator:layerName="rect">
<clipPath clip-rule="nonzero" id="ClipPath_6">
<path d="M0 0L679 0L679 0L679 88L679 88L0 88L0 88L0 0L0 0Z"/>
</clipPath>
<g clip-path="url(#ClipPath_6)">
<path d="M278.107 20.723C278.107 19.871 278.39 19.161 279.097 18.452C279.663 17.884 280.512 17.458 281.361 17.458C282.492 17.458 283.341 17.884 283.907 18.877L311.916 59.613L311.916 20.723C311.916 19.871 312.199 19.161 312.764 18.452C313.33 17.742 314.038 17.458 314.886 17.458C315.735 17.458 316.584 17.742 317.15 18.452C317.715 19.161 317.998 19.871 317.998 20.723L317.998 67.987C317.998 68.84 317.715 69.55 317.15 70.259C316.584 70.826 315.876 71.111 314.886 71.111C313.755 71.111 312.906 70.685 312.34 69.692L284.331 28.955L284.331 70.4L278.107 70.258L278.107 20.723Z" fill="#ffffff" fill-rule="nonzero" opacity="1" stroke="none" vectornator:layerName="path"/>
</g>
</g>
<g opacity="1" vectornator:layerName="rect">
<clipPath clip-rule="nonzero" id="ClipPath_7">
<path d="M0 0L679 0L679 0L679 88L679 88L0 88L0 88L0 0L0 0Z"/>
</clipPath>
<g clip-path="url(#ClipPath_7)">
<path d="M348.412 18.594C349.119 19.303 349.685 20.297 350.109 21.432L368.216 69.265L361.993 71.111L357.467 59.187L333.419 59.187L329.741 68.982C329.458 69.547 329.175 70.118 328.608 70.542C328.043 70.968 327.477 71.111 326.77 71.111C325.921 71.111 325.214 70.827 324.648 70.257C324.082 69.692 323.8 68.982 323.8 68.128C323.8 67.563 323.941 66.992 324.224 66.426L340.915 21.574C341.339 20.582 341.763 19.587 342.471 18.877C343.178 18.026 344.028 17.743 345.3 17.743C346.714 17.6 347.846 18.026 348.412 18.594ZM355.626 53.652L345.441 25.123L335.256 53.652L355.626 53.652Z" fill="#ffffff" fill-rule="nonzero" opacity="1" stroke="none" vectornator:layerName="path"/>
</g>
</g>
<g opacity="1" vectornator:layerName="rect">
<clipPath clip-rule="nonzero" id="ClipPath_8">
<path d="M0 0L679 0L679 0L679 88L679 88L0 88L0 88L0 0L0 0Z"/>
</clipPath>
<g clip-path="url(#ClipPath_8)">
<path d="M423.526 64.155C422.819 65.147 422.112 66 421.262 66.71C420.413 67.561 419.282 68.271 418.149 68.695C417.018 69.263 415.746 69.689 414.613 69.973C413.481 70.257 412.21 70.541 410.935 70.682C409.661 70.824 408.532 70.968 407.4 70.968C403.015 70.968 399.054 69.974 395.518 68.129C391.981 66.284 389.152 63.587 386.889 60.179C385.332 57.908 384.201 55.355 383.211 52.657C382.362 49.961 381.938 47.123 381.938 44.284C381.938 40.877 382.503 37.613 383.494 34.632C384.627 31.51 386.041 28.813 388.02 26.4C390.001 23.987 392.264 22 395.093 20.439C397.781 18.877 400.894 17.884 404.288 17.6L405.845 17.6C407.26 17.6 408.675 17.742 410.231 18.168C411.787 18.452 413.343 19.019 414.899 19.587C416.456 20.155 417.871 20.865 419.285 21.574C420.7 22.284 421.832 23.135 422.822 23.987C423.103 24.271 423.386 24.555 423.529 24.839C423.671 25.123 423.671 25.548 423.386 25.832L419.708 33.497C419.425 33.923 418.858 34.206 418.294 34.348C417.728 34.49 417.021 34.348 416.455 34.065C415.04 32.929 413.626 31.935 412.211 31.226C410.796 30.516 409.099 30.09 407.541 30.09C407.117 30.09 406.553 30.232 405.845 30.374C404.288 30.658 403.016 31.226 401.883 32.077C400.751 32.929 399.761 33.923 398.913 35.2C398.064 36.477 397.498 37.755 397.074 39.316C396.649 40.877 396.508 42.439 396.508 44.142C396.508 45.986 396.651 47.69 397.074 49.394C397.497 51.097 398.064 52.516 398.913 53.794C399.761 55.071 400.751 56.066 402.025 56.916C403.296 57.626 404.711 58.052 406.41 58.052C407.683 58.052 408.815 57.91 409.946 57.485C411.078 57.061 412.068 56.632 412.918 56.208C413.626 55.782 414.474 55.498 415.182 55.214C415.889 54.932 416.738 54.789 417.586 54.789C419.425 54.789 420.98 55.356 422.255 56.492C423.529 57.627 424.235 59.189 424.235 60.892C424.516 62.168 424.234 63.161 423.526 64.155Z" fill="#ffffff" fill-rule="nonzero" opacity="1" stroke="none" vectornator:layerName="path"/>
</g>
</g>
<g opacity="1" vectornator:layerName="rect">
<clipPath clip-rule="nonzero" id="ClipPath_9">
<path d="M0 0L679 0L679 0L679 88L679 88L0 88L0 88L0 0L0 0Z"/>
</clipPath>
<g clip-path="url(#ClipPath_9)">
<path d="M474.168 54.503C472.895 57.768 471.196 60.606 468.934 63.019C466.671 65.431 464.125 67.419 461.013 68.839C457.901 70.258 454.504 70.968 450.828 70.968C447.148 70.968 443.755 70.258 440.643 68.839C437.531 67.419 434.843 65.432 432.721 63.019C430.456 60.606 428.759 57.768 427.487 54.503C426.214 51.237 425.648 47.832 425.648 44.282C425.648 40.592 426.213 37.186 427.487 33.921C428.759 30.657 430.458 27.818 432.721 25.405C434.984 22.992 437.529 21.005 440.643 19.586C443.756 18.166 447.15 17.457 450.828 17.457C454.506 17.457 457.901 18.166 461.013 19.586C464.123 21.005 466.813 22.992 468.934 25.405C471.198 27.818 472.895 30.657 474.168 33.921C475.44 37.186 476.007 40.592 476.007 44.141C476.007 47.832 475.441 51.239 474.168 54.503ZM460.305 39.316C459.88 37.613 459.315 35.91 458.465 34.632C457.616 33.213 456.626 32.077 455.354 31.368C454.081 30.658 452.525 30.09 450.685 30.09C448.989 30.09 447.431 30.516 446.16 31.368C444.886 32.219 443.895 33.355 443.048 34.632C442.197 36.052 441.633 37.471 441.209 39.174C440.783 40.877 440.643 42.581 440.643 44.284C440.643 45.989 440.784 47.69 441.209 49.394C441.633 51.097 442.197 52.658 443.048 53.935C443.896 55.355 444.886 56.49 446.16 57.2C447.431 58.053 448.846 58.477 450.685 58.477C452.382 58.477 453.797 58.052 455.071 57.342C456.343 56.489 457.476 55.495 458.325 54.219C459.174 52.942 459.881 51.381 460.305 49.677C460.73 47.974 461.013 46.271 461.013 44.568C461.013 42.865 460.73 41.019 460.305 39.316Z" fill="#ffffff" fill-rule="nonzero" opacity="1" stroke="none" vectornator:layerName="path"/>
</g>
</g>
<g opacity="1" vectornator:layerName="rect">
<clipPath clip-rule="nonzero" id="ClipPath_10">
<path d="M0 0L679 0L679 0L679 88L679 88L0 88L0 88L0 0L0 0Z"/>
</clipPath>
<g clip-path="url(#ClipPath_10)">
<path d="M513.069 72.102C512.645 72.245 512.079 72.387 511.513 72.387C510.949 72.387 510.525 72.102 510.242 71.821L497.368 54.645L497.368 64.155C497.368 65.148 497.226 66 496.803 66.852C496.379 67.703 495.953 68.413 495.246 68.981C494.538 69.547 493.831 70.116 492.982 70.4C492.134 70.826 491.143 70.966 490.153 70.966C489.163 70.966 488.173 70.824 487.324 70.4C486.475 69.971 485.626 69.547 485.061 68.837C484.353 68.271 483.788 67.418 483.503 66.566C483.079 65.712 482.939 64.863 482.939 63.87L482.939 19.587C482.939 19.161 483.22 18.735 483.646 18.452C484.07 18.168 484.635 18.026 485.342 18.168L486.475 18.168L488.171 18.168L490.293 18.168L492.698 18.168C493.971 18.168 495.244 18.026 496.659 18.026L500.054 18.026L502.034 18.026C502.599 18.026 502.883 18.026 503.166 18.168C505.571 18.594 507.834 19.161 509.956 20.013C512.078 20.865 513.917 22 515.473 23.277C517.029 24.697 518.302 26.4 519.151 28.387C519.999 30.374 520.565 32.645 520.565 35.342C520.565 37.187 520.282 38.89 519.717 40.31C519.151 41.729 518.443 43.148 517.452 44.284C516.46 45.419 515.33 46.413 514.058 47.263C512.785 48.118 511.37 48.682 509.814 49.252L521.838 64.295C522.263 64.724 522.403 65.15 522.403 65.434C522.403 65.715 521.978 66.143 521.413 66.424L513.069 72.102ZM504.865 31.935C504.157 31.084 503.307 30.658 502.46 30.658L497.368 30.658L497.368 39.316L502.744 39.316C503.593 39.316 504.3 38.89 505.008 38.039C505.573 37.187 505.998 36.194 505.998 35.058C505.998 33.923 505.572 32.929 504.865 31.935Z" fill="#ffffff" fill-rule="nonzero" opacity="1" stroke="none" vectornator:layerName="path"/>
</g>
</g>
<g opacity="1" vectornator:layerName="rect">
<clipPath clip-rule="nonzero" id="ClipPath_11">
<path d="M0 0L679 0L679 0L679 88L679 88L0 88L0 88L0 0L0 0Z"/>
</clipPath>
<g clip-path="url(#ClipPath_11)">
<path d="M566.258 43.148C565.409 45.277 564.136 47.123 562.58 48.684C561.022 50.247 559.185 51.381 557.063 52.376C554.941 53.227 552.678 53.795 550.273 54.077C549.707 54.221 548.717 54.221 547.302 54.221L543.483 54.221L543.483 54.505L543.483 57.91C543.483 59.187 543.34 60.465 543.34 61.884C543.199 63.161 543.059 64.44 542.916 65.432C542.774 66.569 542.491 67.279 542.067 67.845C541.501 68.698 540.794 69.408 539.802 70.118C538.953 70.827 537.68 71.11 536.266 71.11C535.277 71.11 534.287 70.968 533.437 70.543C532.588 70.118 531.74 69.69 531.173 68.981C530.466 68.271 530.042 67.561 529.617 66.71C529.191 65.858 529.051 65.006 529.051 64.013L529.051 19.729C529.051 19.303 529.193 19.019 529.617 18.735C530.042 18.452 530.466 18.31 531.032 18.31L541.641 18.31C543.763 18.31 545.885 18.452 548.007 18.594C550.129 18.877 552.108 19.161 554.089 19.587L554.089 19.445C557.343 20.155 560.312 21.858 562.718 24.129C565.123 26.542 566.538 29.523 567.105 33.071C567.247 33.923 567.387 34.916 567.387 36.052C567.531 38.748 567.106 41.019 566.258 43.148ZM551.97 32.361C551.12 31.368 549.99 30.8 548.858 30.8L543.766 30.8L543.766 41.587L548.858 41.587C550.131 41.587 551.122 41.019 551.97 40.026C552.819 39.032 553.242 37.755 553.242 36.194C553.242 34.632 552.819 33.355 551.97 32.361Z" fill="#ffffff" fill-rule="nonzero" opacity="1" stroke="none" vectornator:layerName="path"/>
</g>
</g>
<g opacity="1" vectornator:layerName="rect">
<clipPath clip-rule="nonzero" id="ClipPath_12">
<path d="M0 0L679 0L679 0L679 88L679 88L0 88L0 88L0 0L0 0Z"/>
</clipPath>
<g clip-path="url(#ClipPath_12)">
<path d="M617.041 58.337C615.91 61.031 614.354 63.305 612.232 65.15C610.253 66.995 607.705 68.414 605.017 69.408C602.188 70.401 599.216 70.827 595.964 70.827C592.712 70.827 589.598 70.258 586.912 69.408C584.083 68.414 581.678 66.995 579.696 65.15C577.717 63.305 576.018 61.032 574.888 58.337C573.755 55.64 573.191 52.659 573.191 49.111L573.191 19.587C573.191 19.161 573.332 18.877 573.755 18.594C574.181 18.31 574.745 18.168 575.312 18.168L585.779 18.168C586.345 18.168 586.912 18.31 587.194 18.594C587.619 18.877 587.759 19.303 587.759 19.587L587.759 49.392C587.759 52.231 588.467 54.505 590.023 56.208C591.58 57.908 593.559 58.763 595.964 58.763C598.369 58.763 600.351 57.908 601.905 56.208C603.461 54.505 604.169 52.231 604.169 49.392L604.169 24.555C604.169 23.561 604.311 22.71 604.734 21.858C605.157 21.006 605.583 20.297 606.29 19.587C606.998 18.877 607.705 18.452 608.555 18.026C609.404 17.6 610.394 17.458 611.384 17.458C612.375 17.458 613.363 17.6 614.213 18.026C615.062 18.452 615.911 18.877 616.618 19.587C617.326 20.297 617.89 21.006 618.174 21.858C618.599 22.71 618.74 23.561 618.74 24.555L618.74 49.11C618.88 52.659 618.173 55.639 617.041 58.337Z" fill="#ffffff" fill-rule="nonzero" opacity="1" stroke="none" vectornator:layerName="path"/>
</g>
</g>
<g opacity="1" vectornator:layerName="rect">
<clipPath clip-rule="nonzero" id="ClipPath_13">
<path d="M0 0L679 0L679 0L679 88L679 88L0 88L0 88L0 0L0 0Z"/>
</clipPath>
<g clip-path="url(#ClipPath_13)">
<path d="M651.133 38.89C653.255 39.742 655.094 40.735 656.934 41.871C658.63 43.148 660.045 44.568 661.178 46.413C662.309 48.258 662.874 50.529 662.874 53.084C662.874 54.929 662.592 56.632 661.885 58.335C661.319 60.036 660.47 61.6 659.337 63.16C657.358 65.857 655.094 67.842 652.264 68.981C649.435 70.257 646.465 70.826 643.212 70.826C641.939 70.826 640.525 70.681 638.969 70.4C637.271 70.116 635.715 69.69 633.875 69.262C632.179 68.837 630.481 68.271 628.924 67.702C627.368 67.133 625.953 66.566 624.963 65.999C624.539 65.857 624.256 65.713 623.973 65.289C623.691 64.863 623.691 64.579 623.691 64.294C623.833 63.019 624.116 62.024 624.398 61.174C624.68 60.321 624.963 59.471 625.247 58.617C625.389 58.192 625.389 57.907 625.53 57.626C625.672 57.342 625.672 57.058 625.813 56.916L625.67 57.058C625.813 56.916 625.813 56.632 625.953 56.348C626.093 56.065 626.095 55.779 626.236 55.497C626.236 55.353 626.236 55.213 626.377 55.068L626.377 55.355L626.377 55.07C626.377 54.505 626.66 54.079 627.228 53.795C627.792 53.511 628.499 53.511 629.35 53.65C629.631 53.794 630.055 53.935 630.621 54.079C631.187 54.36 631.753 54.505 632.46 54.789C633.168 55.07 633.733 55.355 634.441 55.498C635.148 55.779 635.572 55.924 635.997 56.065C637.411 56.632 638.684 57.058 639.959 57.484C641.231 57.908 642.362 58.052 643.495 58.052C644.06 58.052 644.627 57.907 645.191 57.626C645.757 57.342 646.182 57.058 646.606 56.632C647.032 56.206 647.456 55.778 647.596 55.213C647.879 54.645 648.021 53.935 648.021 53.368C648.021 52.939 647.879 52.515 647.596 52.229C647.313 51.948 646.889 51.52 646.465 51.239C646.04 50.955 645.616 50.671 645.191 50.529C644.767 50.386 644.343 50.1 644.06 49.961L644.06 50.102C642.928 49.537 641.796 49.111 640.666 48.682C638.826 48.116 636.987 47.406 635.289 46.697C633.45 45.987 631.896 44.994 630.481 44C629.067 42.865 627.935 41.445 626.945 39.884C626.095 38.181 625.672 36.194 625.672 33.781C625.672 31.226 626.237 28.813 627.369 26.826C628.501 24.839 629.915 22.994 631.756 21.716C633.595 20.297 635.574 19.303 637.838 18.594C640.102 17.884 642.365 17.458 644.768 17.458C645.9 17.458 647.456 17.6 649.155 17.884C650.854 18.168 652.549 18.735 654.106 19.445C655.662 20.155 657.077 21.148 658.207 22.284C659.339 23.419 659.905 24.839 659.905 26.542C659.905 28.245 659.34 29.665 658.066 30.8C656.792 31.935 655.378 32.645 653.539 32.645C652.549 32.645 651.558 32.503 650.851 32.219C650.002 31.935 649.155 31.652 648.448 31.226C647.598 30.942 646.75 30.516 645.9 30.232C645.05 29.948 644.201 29.806 643.211 29.806C642.645 29.806 641.938 30.09 641.231 30.516C640.523 30.942 640.24 31.652 640.24 32.645C640.24 33.213 640.383 33.639 640.666 34.065C640.948 34.49 641.231 34.774 641.655 35.058C642.081 35.342 642.505 35.626 643.07 35.768C643.635 35.91 644.06 36.194 644.484 36.335C644.767 36.477 645.05 36.619 645.334 36.619L645.051 36.477L645.334 36.477L645.334 36.619C647.03 37.471 649.011 38.181 651.133 38.89Z" fill="#ffffff" fill-rule="nonzero" opacity="1" stroke="none" vectornator:layerName="path"/>
</g>
</g>
</g>
<path d="M355 88.5L664 88.5L664 88.5L664 136.5L664 136.5L355 136.5L355 136.5L355 88.5L355 88.5Z" fill="#d0dd2a" fill-rule="nonzero" opacity="1" stroke="none" vectornator:layerName="rect"/>
<g opacity="1" vectornator:layerName="Group 1">
<path d="M370.234 113.338C370.234 115.326 370.514 117.251 371.074 119.113C371.634 120.975 372.467 122.627 373.573 124.069C374.679 125.511 376.058 126.673 377.71 127.555C379.362 128.437 381.266 128.878 383.422 128.878C385.578 128.878 387.475 128.444 389.113 127.576C390.751 126.708 392.13 125.546 393.25 124.09C394.37 122.634 395.21 120.982 395.77 119.134C396.33 117.286 396.61 115.368 396.61 113.38C396.61 111.42 396.33 109.509 395.77 107.647C395.21 105.785 394.377 104.133 393.271 102.691C392.165 101.249 390.793 100.087 389.155 99.205C387.517 98.323 385.62 97.882 383.464 97.882C381.308 97.882 379.404 98.316 377.752 99.184C376.1 100.052 374.714 101.2 373.594 102.628C372.474 104.056 371.634 105.701 371.074 107.563C370.514 109.425 370.234 111.35 370.234 113.338ZM374.224 113.38C374.224 111.98 374.385 110.552 374.707 109.096C375.029 107.64 375.547 106.317 376.261 105.127C376.975 103.937 377.913 102.964 379.075 102.208C380.237 101.452 381.644 101.074 383.296 101.074C385.06 101.074 386.537 101.452 387.727 102.208C388.917 102.964 389.883 103.944 390.625 105.148C391.367 106.352 391.892 107.71 392.2 109.222C392.508 110.734 392.662 112.246 392.662 113.758C392.662 115.214 392.487 116.656 392.137 118.084C391.787 119.512 391.234 120.793 390.478 121.927C389.722 123.061 388.756 123.978 387.58 124.678C386.404 125.378 384.976 125.728 383.296 125.728C381.644 125.728 380.237 125.35 379.075 124.594C377.913 123.838 376.975 122.865 376.261 121.675C375.547 120.485 375.029 119.155 374.707 117.685C374.385 116.215 374.224 114.78 374.224 113.38Z" fill="#000000" fill-rule="nonzero" opacity="1" stroke="none"/>
<path d="M402.34 127.03C402.34 127.534 402.522 127.968 402.886 128.332C403.25 128.696 403.684 128.878 404.188 128.878C404.692 128.878 405.112 128.696 405.448 128.332C405.784 127.968 405.952 127.534 405.952 127.03L405.952 117.16L411.706 117.16C413.05 117.16 414.317 116.929 415.507 116.467C416.697 116.005 417.733 115.361 418.615 114.535C419.497 113.709 420.19 112.722 420.694 111.574C421.198 110.426 421.45 109.152 421.45 107.752C421.45 107.052 421.394 106.422 421.282 105.862C421.03 104.686 420.61 103.629 420.022 102.691C419.434 101.753 418.72 100.955 417.88 100.297C417.04 99.639 416.088 99.135 415.024 98.785C413.96 98.435 412.84 98.26 411.664 98.26C410.124 98.26 408.57 98.288 407.002 98.344C405.434 98.4 403.88 98.344 402.34 98.176L402.34 127.03ZM406.036 113.884L406.036 101.494L411.538 101.494C412.406 101.494 413.218 101.655 413.974 101.977C414.73 102.299 415.388 102.74 415.948 103.3C416.508 103.86 416.956 104.518 417.292 105.274C417.628 106.03 417.796 106.842 417.796 107.71C417.796 108.55 417.635 109.348 417.313 110.104C416.991 110.86 416.543 111.518 415.969 112.078C415.395 112.638 414.73 113.079 413.974 113.401C413.218 113.723 412.42 113.884 411.58 113.884L406.036 113.884Z" fill="#000000" fill-rule="nonzero" opacity="1" stroke="none"/>
<path d="M427.894 126.526C427.894 127.086 428.055 127.555 428.377 127.933C428.699 128.311 429.154 128.5 429.742 128.5L443.308 128.5L443.308 125.182L431.59 125.182L431.59 115.06L439.906 115.06C440.382 115.06 440.781 114.899 441.103 114.577C441.425 114.255 441.586 113.856 441.586 113.38C441.586 112.904 441.418 112.512 441.082 112.204C440.746 111.896 440.34 111.742 439.864 111.742L431.59 111.742L431.59 101.578L440.326 101.578C440.802 101.578 441.208 101.417 441.544 101.095C441.88 100.773 442.048 100.374 442.048 99.898C442.048 99.45 441.88 99.065 441.544 98.743C441.208 98.421 440.816 98.26 440.368 98.26L429.784 98.26C429.476 98.26 429.168 98.26 428.86 98.26C428.552 98.26 428.244 98.232 427.936 98.176L427.894 126.526Z" fill="#000000" fill-rule="nonzero" opacity="1" stroke="none"/>
<path d="M449.668 128.458L453.28 128.5L453.28 104.476L469.534 128.122C469.898 128.654 470.402 128.92 471.046 128.92C471.55 128.92 471.977 128.745 472.327 128.395C472.677 128.045 472.852 127.618 472.852 127.114L472.852 99.772C472.852 99.268 472.677 98.827 472.327 98.449C471.977 98.071 471.536 97.882 471.004 97.882C470.528 97.882 470.115 98.078 469.765 98.47C469.415 98.862 469.24 99.296 469.24 99.772L469.282 122.284L453.028 98.68C452.664 98.148 452.16 97.882 451.516 97.882C451.012 97.882 450.578 98.064 450.214 98.428C449.85 98.792 449.668 99.226 449.668 99.73L449.668 128.458Z" fill="#000000" fill-rule="nonzero" opacity="1" stroke="none"/>
<path d="M493.3 122.62L492.25 126.19C492.866 126.414 493.622 126.68 494.518 126.988C495.414 127.296 496.338 127.59 497.29 127.87C498.242 128.15 499.166 128.388 500.062 128.584C500.958 128.78 501.714 128.878 502.33 128.878C503.618 128.878 504.85 128.619 506.026 128.101C507.202 127.583 508.238 126.883 509.134 126.001C510.03 125.119 510.744 124.097 511.276 122.935C511.808 121.773 512.074 120.534 512.074 119.218C512.074 118.154 511.864 117.195 511.444 116.341C511.024 115.487 510.478 114.731 509.806 114.073C509.134 113.415 508.364 112.841 507.496 112.351C506.628 111.861 505.746 111.448 504.85 111.112C504.178 110.86 503.422 110.594 502.582 110.314C501.742 110.034 500.965 109.691 500.251 109.285C499.537 108.879 498.935 108.375 498.445 107.773C497.955 107.171 497.71 106.408 497.71 105.484C497.71 104.84 497.864 104.252 498.172 103.72C498.48 103.188 498.886 102.74 499.39 102.376C499.894 102.012 500.447 101.732 501.049 101.536C501.651 101.34 502.246 101.242 502.834 101.242C503.506 101.242 504.115 101.34 504.661 101.536C505.207 101.732 505.704 101.942 506.152 102.166C506.6 102.39 507.013 102.6 507.391 102.796C507.769 102.992 508.14 103.09 508.504 103.09C508.952 103.09 509.33 102.915 509.638 102.565C509.946 102.215 510.1 101.816 510.1 101.368C510.1 100.78 509.813 100.262 509.239 99.814C508.665 99.366 507.986 99.002 507.202 98.722C506.418 98.442 505.62 98.232 504.808 98.092C503.996 97.952 503.366 97.882 502.918 97.882C501.77 97.882 500.65 98.071 499.558 98.449C498.466 98.827 497.493 99.366 496.639 100.066C495.785 100.766 495.099 101.613 494.581 102.607C494.063 103.601 493.804 104.714 493.804 105.946C493.804 107.542 494.161 108.809 494.875 109.747C495.589 110.685 496.478 111.448 497.542 112.036C498.606 112.624 499.761 113.107 501.007 113.485C502.253 113.863 503.408 114.283 504.472 114.745C505.536 115.207 506.425 115.781 507.139 116.467C507.853 117.153 508.21 118.084 508.21 119.26C508.21 120.128 508.049 120.94 507.727 121.696C507.405 122.452 506.964 123.117 506.404 123.691C505.844 124.265 505.186 124.713 504.43 125.035C503.674 125.357 502.862 125.518 501.994 125.518C501.07 125.518 500.237 125.378 499.495 125.098C498.753 124.818 497.976 124.51 497.164 124.174C497.052 124.146 496.793 124.048 496.387 123.88C495.981 123.712 495.554 123.544 495.106 123.376C494.658 123.208 494.252 123.047 493.888 122.893C493.524 122.739 493.328 122.648 493.3 122.62Z" fill="#000000" fill-rule="nonzero" opacity="1" stroke="none"/>
<path d="M517.3 113.338C517.3 115.326 517.58 117.251 518.14 119.113C518.7 120.975 519.533 122.627 520.639 124.069C521.745 125.511 523.124 126.673 524.776 127.555C526.428 128.437 528.332 128.878 530.488 128.878C532.644 128.878 534.541 128.444 536.179 127.576C537.817 126.708 539.196 125.546 540.316 124.09C541.436 122.634 542.276 120.982 542.836 119.134C543.396 117.286 543.676 115.368 543.676 113.38C543.676 111.42 543.396 109.509 542.836 107.647C542.276 105.785 541.443 104.133 540.337 102.691C539.231 101.249 537.859 100.087 536.221 99.205C534.583 98.323 532.686 97.882 530.53 97.882C528.374 97.882 526.47 98.316 524.818 99.184C523.166 100.052 521.78 101.2 520.66 102.628C519.54 104.056 518.7 105.701 518.14 107.563C517.58 109.425 517.3 111.35 517.3 113.338ZM521.29 113.38C521.29 111.98 521.451 110.552 521.773 109.096C522.095 107.64 522.613 106.317 523.327 105.127C524.041 103.937 524.979 102.964 526.141 102.208C527.303 101.452 528.71 101.074 530.362 101.074C532.126 101.074 533.603 101.452 534.793 102.208C535.983 102.964 536.949 103.944 537.691 105.148C538.433 106.352 538.958 107.71 539.266 109.222C539.574 110.734 539.728 112.246 539.728 113.758C539.728 115.214 539.553 116.656 539.203 118.084C538.853 119.512 538.3 120.793 537.544 121.927C536.788 123.061 535.822 123.978 534.646 124.678C533.47 125.378 532.042 125.728 530.362 125.728C528.71 125.728 527.303 125.35 526.141 124.594C524.979 123.838 524.041 122.865 523.327 121.675C522.613 120.485 522.095 119.155 521.773 117.685C521.451 116.215 521.29 114.78 521.29 113.38Z" fill="#000000" fill-rule="nonzero" opacity="1" stroke="none"/>
<path d="M549.406 117.79C549.406 119.498 549.7 121.038 550.288 122.41C550.876 123.782 551.688 124.951 552.724 125.917C553.76 126.883 554.992 127.625 556.42 128.143C557.848 128.661 559.388 128.92 561.04 128.92C562.72 128.92 564.267 128.661 565.681 128.143C567.095 127.625 568.327 126.883 569.377 125.917C570.427 124.951 571.246 123.782 571.834 122.41C572.422 121.038 572.716 119.498 572.716 117.79L572.716 99.814C572.716 99.31 572.534 98.876 572.17 98.512C571.806 98.148 571.386 97.966 570.91 97.966C570.378 97.966 569.944 98.148 569.608 98.512C569.272 98.876 569.104 99.31 569.104 99.814L569.104 117.832C569.104 119.036 568.908 120.128 568.516 121.108C568.124 122.088 567.578 122.921 566.878 123.607C566.178 124.293 565.331 124.825 564.337 125.203C563.343 125.581 562.258 125.77 561.082 125.77C559.878 125.77 558.779 125.581 557.785 125.203C556.791 124.825 555.944 124.293 555.244 123.607C554.544 122.921 553.998 122.088 553.606 121.108C553.214 120.128 553.018 119.036 553.018 117.832L553.018 98.134L549.406 98.134L549.406 117.79Z" fill="#000000" fill-rule="nonzero" opacity="1" stroke="none"/>
<path d="M578.488 127.03C578.488 127.534 578.663 127.975 579.013 128.353C579.363 128.731 579.804 128.92 580.336 128.92C580.812 128.92 581.232 128.738 581.596 128.374C581.96 128.01 582.142 127.59 582.142 127.114L582.142 115.144L595.078 129.508L597.808 127.24L586.384 115.102C586.608 115.158 586.818 115.186 587.014 115.186C587.21 115.186 587.406 115.186 587.602 115.186C588.834 115.186 590.01 115.018 591.13 114.682C592.25 114.346 593.23 113.842 594.07 113.17C594.91 112.498 595.582 111.665 596.086 110.671C596.59 109.677 596.842 108.522 596.842 107.206C596.842 105.862 596.604 104.637 596.128 103.531C595.652 102.425 594.994 101.487 594.154 100.717C593.314 99.947 592.327 99.345 591.193 98.911C590.059 98.477 588.834 98.26 587.518 98.26C586.006 98.26 584.501 98.281 583.003 98.323C581.505 98.365 580 98.316 578.488 98.176L578.488 127.03ZM582.142 112.246L582.142 101.62L587.392 101.62C588.148 101.62 588.876 101.76 589.576 102.04C590.276 102.32 590.885 102.705 591.403 103.195C591.921 103.685 592.334 104.266 592.642 104.938C592.95 105.61 593.104 106.338 593.104 107.122C593.104 107.85 592.964 108.522 592.684 109.138C592.404 109.754 592.033 110.293 591.571 110.755C591.109 111.217 590.563 111.581 589.933 111.847C589.303 112.113 588.638 112.246 587.938 112.246L582.142 112.246Z" fill="#000000" fill-rule="nonzero" opacity="1" stroke="none"/>
<path d="M602.74 113.674C602.74 115.69 603.034 117.622 603.622 119.47C604.21 121.318 605.078 122.942 606.226 124.342C607.374 125.742 608.788 126.855 610.468 127.681C612.148 128.507 614.066 128.92 616.222 128.92C617.482 128.92 618.791 128.773 620.149 128.479C621.507 128.185 622.718 127.674 623.782 126.946C624.174 126.666 624.573 126.351 624.979 126.001C625.385 125.651 625.588 125.196 625.588 124.636C625.588 124.16 625.434 123.74 625.126 123.376C624.818 123.012 624.426 122.83 623.95 122.83C623.642 122.83 623.278 122.97 622.858 123.25C622.438 123.53 621.927 123.838 621.325 124.174C620.723 124.51 620.009 124.818 619.183 125.098C618.357 125.378 617.398 125.518 616.306 125.518C614.626 125.518 613.17 125.168 611.938 124.468C610.706 123.768 609.691 122.844 608.893 121.696C608.095 120.548 607.507 119.246 607.129 117.79C606.751 116.334 606.562 114.864 606.562 113.38C606.562 111.952 606.744 110.517 607.108 109.075C607.472 107.633 608.032 106.331 608.788 105.169C609.544 104.007 610.51 103.062 611.686 102.334C612.862 101.606 614.276 101.242 615.928 101.242C616.74 101.242 617.461 101.319 618.091 101.473C618.721 101.627 619.309 101.844 619.855 102.124C620.401 102.404 620.919 102.761 621.409 103.195C621.899 103.629 622.424 104.112 622.984 104.644L625.084 102.754C624.692 101.97 624.167 101.27 623.509 100.654C622.851 100.038 622.116 99.52 621.304 99.1C620.492 98.68 619.645 98.358 618.763 98.134C617.881 97.91 617.02 97.798 616.18 97.798C613.912 97.798 611.938 98.239 610.258 99.121C608.578 100.003 607.185 101.179 606.079 102.649C604.973 104.119 604.14 105.813 603.58 107.731C603.02 109.649 602.74 111.63 602.74 113.674Z" fill="#000000" fill-rule="nonzero" opacity="1" stroke="none"/>
<path d="M631.234 126.526C631.234 127.086 631.395 127.555 631.717 127.933C632.039 128.311 632.494 128.5 633.082 128.5L646.648 128.5L646.648 125.182L634.93 125.182L634.93 115.06L643.246 115.06C643.722 115.06 644.121 114.899 644.443 114.577C644.765 114.255 644.926 113.856 644.926 113.38C644.926 112.904 644.758 112.512 644.422 112.204C644.086 111.896 643.68 111.742 643.204 111.742L634.93 111.742L634.93 101.578L643.666 101.578C644.142 101.578 644.548 101.417 644.884 101.095C645.22 100.773 645.388 100.374 645.388 99.898C645.388 99.45 645.22 99.065 644.884 98.743C644.548 98.421 644.156 98.26 643.708 98.26L633.124 98.26C632.816 98.26 632.508 98.26 632.2 98.26C631.892 98.26 631.584 98.232 631.276 98.176L631.234 126.526Z" fill="#000000" fill-rule="nonzero" opacity="1" stroke="none"/>
</g>
</g>
</svg>
