<svg stroke-miterlimit="10" style="fill-rule:nonzero;clip-rule:evenodd;stroke-linecap:round;stroke-linejoin:round" viewBox="0 0 679 138" xml:space="preserve" xmlns="http://www.w3.org/2000/svg" xmlns:vectornator="http://vectornator.io"><g vectornator:layerName="shape-4229bead-d4ca-80d8-8003-0f46efb2f7f8"><g vectornator:layerName="shape-11445699-4ed4-80c5-8002-dd62451e3b09"><g vectornator:layerName="rect"><clipPath clip-rule="nonzero" id="a"><path d="M0 0h679v88H0V0z"/></clipPath><g clip-path="url(#a)"><path d="M81.197 67.419c-2.829-2.271-5.658-4.684-8.487-6.953-1.132-.994-1.274-1.138-.425-2.413 1.698-2.983 2.829-6.103 3.537-9.371 1.131-5.108.99-10.076-.708-15.043-.565-1.704-1.414-3.123-2.263-4.684-.283-.426-.424-.852 0-1.278 1.273-1.419 2.546-2.838 3.961-4.116 1.98-2.129 4.102-4.116 5.941-6.245 2.122-2.413 1.556-5.251-1.132-6.813-.707-.568-1.556-.993-2.404-1.419-2.122-1.136-4.244-.994-6.224-.142-1.698.71-2.83 1.845-4.103 3.264l-7.073 6.813c-.424.284-.566.284-.99.284-.424 0-.849-.142-1.415-.142-17.682-2.838-27.584 7.523-27.584 7.523-.424.426-.849.426-1.273 0-1.273-.994-2.546-1.845-3.678-2.839-1.98-1.561-3.395-1.845-5.517-.568-1.414.852-2.122 2.129-3.112 3.265-.566.568-.99 1.277-1.414 1.845-1.132 1.845-.991 3.69.565 5.252 1.273 1.277 2.547 2.555 3.961 3.832.566.426.566.852.283 1.561-.424.852-.849 1.562-1.132 2.413-3.112 7.097-3.96 14.334-1.414 21.858.424 1.136.141 1.701-.566 2.555-1.98 2.129-4.102 4.113-5.8 6.387-1.556 1.984-1.556 4.4-.141 6.529l1.697 2.129c1.556 1.844 4.103 1.844 5.8.284 1.839-1.703 3.537-3.548 5.376-5.252 2.121-1.985 1.414-1.985 4.102-.566 4.385 2.271 9.053 2.981 14.004 2.555 5.234-.426 9.902-2.274 14.429-4.826 1.273-.709 1.414-.709 2.546.284l1.839 1.703c1.839 1.704 3.678 3.404 5.517 4.968 2.546 2.129 6.366 2.271 9.053.426 1.839-1.279 3.395-2.839 4.951-4.4 2.264-2.558 2.264-6.247-.707-8.66zm-25.18-8.658c-6.648 6.813-18.248 9.368-24.472 2.694-6.365-6.952-4.102-15.892.566-22.281 4.668-6.387 16.409-13.2 25.321-6.245 8.488 6.529 5.234 18.877-1.415 25.832z" fill="#d0dd2a" vectornator:layerName="path"/></g></g><g vectornator:layerName="rect"><clipPath clip-rule="nonzero" id="b"><path d="M0 0h679v88H0V0z"/></clipPath><g clip-path="url(#b)"><path d="M125.332 18.594c.707.709 1.273 1.561 1.698 2.696l11.175 38.749 11.316-38.749c.283-1.135.849-1.987 1.557-2.696.707-.71 1.697-.994 2.97-.994 1.273 0 2.263.284 3.112.994.849.709 1.415 1.703 1.698 2.838l7.921 48.116-6.224 1.136-6.507-45.136-12.731 43.007h-6.224l-12.59-43.007-6.366 42.581c-.141.852-.424 1.561-.99 2.129-.566.426-1.273.71-2.263.71-.849 0-1.556-.284-2.122-.853-.566-.567-.849-1.276-.849-2.129V66.85l7.639-45.419c.283-1.278.849-2.129 1.697-2.839.849-.71 1.981-.993 3.112-.993 1.132.001 2.264.427 2.971.995z" fill="#fff" vectornator:layerName="path"/></g></g><g vectornator:layerName="rect"><clipPath clip-rule="nonzero" id="c"><path d="M0 0h679v88H0V0z"/></clipPath><g clip-path="url(#c)"><path d="M194.364 18.594c.707.709 1.273 1.703 1.697 2.838l18.107 47.833-6.224 1.846-4.527-11.924h-24.048l-3.678 9.795c-.283.565-.566 1.136-1.131 1.56-.566.426-1.132.569-1.839.569-.849 0-1.556-.284-2.122-.854-.566-.565-.849-1.275-.849-2.129 0-.565.141-1.136.424-1.702l16.692-44.852c.425-.992.849-1.987 1.557-2.697.707-.851 1.556-1.134 2.829-1.134 1.414-.143 2.404.283 3.112.851zm7.214 35.058-10.185-28.529-10.326 28.529h20.511z" fill="#fff" vectornator:layerName="path"/></g></g><g vectornator:layerName="rect"><clipPath clip-rule="nonzero" id="d"><path d="M0 0h679v88H0V0z"/></clipPath><g clip-path="url(#d)"><path d="M218.412 20.723c0-.852.283-1.562.848-2.129.566-.568 1.274-.994 2.122-.994.849 0 1.556.284 2.264.852.565.567.99 1.277.99 2.271V40.31l23.906-22.568 4.527 4.116-22.492 21.007 23.482 22.993c.707.71 1.132 1.563 1.132 2.413 0 .853-.283 1.563-.849 1.987-.566.566-1.273.852-1.98.852-.991 0-1.839-.426-2.547-1.136l-25.179-24.555V70.4h-6.224V20.723z" fill="#fff" vectornator:layerName="path"/></g></g><g vectornator:layerName="rect"><clipPath clip-rule="nonzero" id="e"><path d="M0 0h679v88H0V0z"/></clipPath><g clip-path="url(#e)"><path d="M260.708 20.865c0-.852.283-1.562.99-2.271.566-.568 1.415-.994 2.263-.994.849 0 1.556.284 2.122.994.566.567.849 1.419.849 2.271V70.4h-6.224V20.865z" fill="#fff" vectornator:layerName="path"/></g></g><g vectornator:layerName="rect"><clipPath clip-rule="nonzero" id="f"><path d="M0 0h679v88H0V0z"/></clipPath><g clip-path="url(#f)"><path d="M278.107 20.723c0-.852.283-1.562.99-2.271.566-.568 1.415-.994 2.264-.994 1.131 0 1.98.426 2.546 1.419l28.009 40.736v-38.89c0-.852.283-1.562.848-2.271.566-.71 1.274-.994 2.122-.994.849 0 1.698.284 2.264.994.565.709.848 1.419.848 2.271v47.264c0 .853-.283 1.563-.848 2.272-.566.567-1.274.852-2.264.852-1.131 0-1.98-.426-2.546-1.419l-28.009-40.737V70.4l-6.224-.142V20.723z" fill="#fff" vectornator:layerName="path"/></g></g><g vectornator:layerName="rect"><clipPath clip-rule="nonzero" id="g"><path d="M0 0h679v88H0V0z"/></clipPath><g clip-path="url(#g)"><path d="M348.412 18.594c.707.709 1.273 1.703 1.697 2.838l18.107 47.833-6.223 1.846-4.526-11.924h-24.048l-3.678 9.795c-.283.565-.566 1.136-1.133 1.56-.565.426-1.131.569-1.838.569-.849 0-1.556-.284-2.122-.854-.566-.565-.848-1.275-.848-2.129 0-.565.141-1.136.424-1.702l16.691-44.852c.424-.992.848-1.987 1.556-2.697.707-.851 1.557-1.134 2.829-1.134 1.414-.143 2.546.283 3.112.851zm7.214 35.058-10.185-28.529-10.185 28.529h20.37z" fill="#fff" vectornator:layerName="path"/></g></g><g vectornator:layerName="rect"><clipPath clip-rule="nonzero" id="h"><path d="M0 0h679v88H0V0z"/></clipPath><g clip-path="url(#h)"><path d="M423.526 64.155c-.707.992-1.414 1.845-2.264 2.555-.849.851-1.98 1.561-3.113 1.985-1.131.568-2.403.994-3.536 1.278-1.132.284-2.403.568-3.678.709-1.274.142-2.403.286-3.535.286-4.385 0-8.346-.994-11.882-2.839-3.537-1.845-6.366-4.542-8.629-7.95-1.557-2.271-2.688-4.824-3.678-7.522a27.935 27.935 0 0 1-1.273-8.373c0-3.407.565-6.671 1.556-9.652 1.133-3.122 2.547-5.819 4.526-8.232 1.981-2.413 4.244-4.4 7.073-5.961 2.688-1.562 5.801-2.555 9.195-2.839h1.557c1.415 0 2.83.142 4.386.568 1.556.284 3.112.851 4.668 1.419 1.557.568 2.972 1.278 4.386 1.987 1.415.71 2.547 1.561 3.537 2.413.281.284.564.568.707.852.142.284.142.709-.143.993l-3.678 7.665c-.283.426-.85.709-1.414.851-.566.142-1.273 0-1.839-.283-1.415-1.136-2.829-2.13-4.244-2.839-1.415-.71-3.112-1.136-4.67-1.136-.424 0-.988.142-1.696.284-1.557.284-2.829.852-3.962 1.703-1.132.852-2.122 1.846-2.97 3.123-.849 1.277-1.415 2.555-1.839 4.116-.425 1.561-.566 3.123-.566 4.826 0 1.844.143 3.548.566 5.252.423 1.703.99 3.122 1.839 4.4a10.852 10.852 0 0 0 3.112 3.122 8.743 8.743 0 0 0 4.385 1.136c1.273 0 2.405-.142 3.536-.567a31.238 31.238 0 0 0 2.972-1.277c.708-.426 1.556-.71 2.264-.994.707-.282 1.556-.425 2.404-.425 1.839 0 3.394.567 4.669 1.703a5.825 5.825 0 0 1 1.98 4.4c.281 1.276-.001 2.269-.709 3.263z" fill="#fff" vectornator:layerName="path"/></g></g><g vectornator:layerName="rect"><clipPath clip-rule="nonzero" id="i"><path d="M0 0h679v88H0V0z"/></clipPath><g clip-path="url(#i)"><path d="M474.168 54.503c-1.273 3.265-2.972 6.103-5.234 8.516-2.263 2.412-4.809 4.4-7.921 5.82-3.112 1.419-6.509 2.129-10.185 2.129-3.68 0-7.073-.71-10.185-2.129-3.112-1.42-5.8-3.407-7.922-5.82-2.265-2.413-3.962-5.251-5.234-8.516-1.273-3.266-1.839-6.671-1.839-10.221 0-3.69.565-7.096 1.839-10.361 1.272-3.264 2.971-6.103 5.234-8.516 2.263-2.413 4.808-4.4 7.922-5.819 3.113-1.42 6.507-2.129 10.185-2.129 3.678 0 7.073.709 10.185 2.129 3.11 1.419 5.8 3.406 7.921 5.819 2.264 2.413 3.961 5.252 5.234 8.516 1.272 3.265 1.839 6.671 1.839 10.22 0 3.691-.566 7.098-1.839 10.362zm-13.863-15.187c-.425-1.703-.99-3.406-1.84-4.684-.849-1.419-1.839-2.555-3.111-3.264-1.273-.71-2.829-1.278-4.669-1.278-1.696 0-3.254.426-4.525 1.278-1.274.851-2.265 1.987-3.112 3.264-.851 1.42-1.415 2.839-1.839 4.542-.426 1.703-.566 3.407-.566 5.11 0 1.705.141 3.406.566 5.11.424 1.703.988 3.264 1.839 4.541.848 1.42 1.838 2.555 3.112 3.265 1.271.853 2.686 1.277 4.525 1.277a8.76 8.76 0 0 0 4.386-1.135c1.272-.853 2.405-1.847 3.254-3.123a14.696 14.696 0 0 0 1.98-4.542c.425-1.703.708-3.406.708-5.109 0-1.703-.283-3.549-.708-5.252z" fill="#fff" vectornator:layerName="path"/></g></g><g vectornator:layerName="rect"><clipPath clip-rule="nonzero" id="j"><path d="M0 0h679v88H0V0z"/></clipPath><g clip-path="url(#j)"><path d="M513.069 72.102c-.424.143-.99.285-1.556.285-.564 0-.988-.285-1.271-.566l-12.874-17.176v9.51c0 .993-.142 1.845-.565 2.697-.424.851-.85 1.561-1.557 2.129-.708.566-1.415 1.135-2.264 1.419-.848.426-1.839.566-2.829.566-.99 0-1.98-.142-2.829-.566-.849-.429-1.698-.853-2.263-1.563-.708-.566-1.273-1.419-1.558-2.271-.424-.854-.564-1.703-.564-2.696V19.587c0-.426.281-.852.707-1.135.424-.284.989-.426 1.696-.284h7.356c1.273 0 2.546-.142 3.961-.142h5.375c.565 0 .849 0 1.132.142 2.405.426 4.668.993 6.79 1.845a21.046 21.046 0 0 1 5.517 3.264c1.556 1.42 2.829 3.123 3.678 5.11a17.396 17.396 0 0 1 1.414 6.955c0 1.845-.283 3.548-.848 4.968-.566 1.419-1.274 2.838-2.265 3.974a17.116 17.116 0 0 1-3.394 2.979c-1.273.855-2.688 1.419-4.244 1.989l12.024 15.043c.425.429.565.855.565 1.139 0 .281-.425.709-.99.99l-8.344 5.678zm-8.204-40.167c-.708-.851-1.558-1.277-2.405-1.277h-5.092v8.658h5.376c.849 0 1.556-.426 2.264-1.277.565-.852.99-1.845.99-2.981 0-1.135-.426-2.129-1.133-3.123z" fill="#fff" vectornator:layerName="path"/></g></g><g vectornator:layerName="rect"><clipPath clip-rule="nonzero" id="k"><path d="M0 0h679v88H0V0z"/></clipPath><g clip-path="url(#k)"><path d="M566.258 43.148c-.849 2.129-2.122 3.975-3.678 5.536-1.558 1.563-3.395 2.697-5.517 3.692-2.122.851-4.385 1.419-6.79 1.701-.566.144-1.556.144-2.971.144h-3.819V57.91c0 1.277-.143 2.555-.143 3.974-.141 1.277-.281 2.556-.424 3.548-.142 1.137-.425 1.847-.849 2.413-.566.853-1.273 1.563-2.265 2.273-.849.709-2.122.992-3.536.992-.989 0-1.979-.142-2.829-.567-.849-.425-1.697-.853-2.264-1.562-.707-.71-1.131-1.42-1.556-2.271-.426-.852-.566-1.704-.566-2.697V19.729c0-.426.142-.71.566-.994a2.392 2.392 0 0 1 1.415-.425h10.609c2.122 0 4.244.142 6.366.284 2.122.283 4.101.567 6.082.993v-.142c3.254.71 6.223 2.413 8.629 4.684 2.405 2.413 3.82 5.394 4.387 8.942.142.852.282 1.845.282 2.981.144 2.696-.281 4.967-1.129 7.096zM551.97 32.361c-.85-.993-1.98-1.561-3.112-1.561h-5.092v10.787h5.092c1.273 0 2.264-.568 3.112-1.561.849-.994 1.272-2.271 1.272-3.832 0-1.562-.423-2.839-1.272-3.833z" fill="#fff" vectornator:layerName="path"/></g></g><g vectornator:layerName="rect"><clipPath clip-rule="nonzero" id="l"><path d="M0 0h679v88H0V0z"/></clipPath><g clip-path="url(#l)"><path d="M617.041 58.337c-1.131 2.694-2.687 4.968-4.809 6.813-1.979 1.845-4.527 3.264-7.215 4.258-2.829.993-5.801 1.419-9.053 1.419-3.252 0-6.366-.569-9.052-1.419-2.829-.994-5.234-2.413-7.216-4.258-1.979-1.845-3.678-4.118-4.808-6.813-1.133-2.697-1.697-5.678-1.697-9.226V19.587c0-.426.141-.71.564-.993.426-.284.99-.426 1.557-.426h10.467c.566 0 1.133.142 1.415.426.425.283.565.709.565.993v29.805c0 2.839.708 5.113 2.264 6.816 1.557 1.7 3.536 2.555 5.941 2.555s4.387-.855 5.941-2.555c1.556-1.703 2.264-3.977 2.264-6.816V24.555c0-.994.142-1.845.565-2.697.423-.852.849-1.561 1.556-2.271.708-.71 1.415-1.135 2.265-1.561.849-.426 1.839-.568 2.829-.568.991 0 1.979.142 2.829.568.849.426 1.698.851 2.405 1.561.708.71 1.272 1.419 1.556 2.271.425.852.566 1.703.566 2.697V49.11c.14 3.549-.567 6.529-1.699 9.227z" fill="#fff" vectornator:layerName="path"/></g></g><g vectornator:layerName="rect"><clipPath clip-rule="nonzero" id="m"><path d="M0 0h679v88H0V0z"/></clipPath><g clip-path="url(#m)"><path d="M651.133 38.89c2.122.852 3.961 1.845 5.801 2.981 1.696 1.277 3.111 2.697 4.244 4.542 1.131 1.845 1.696 4.116 1.696 6.671 0 1.845-.282 3.548-.989 5.251-.566 1.701-1.415 3.265-2.548 4.825-1.979 2.697-4.243 4.682-7.073 5.821-2.829 1.276-5.799 1.845-9.052 1.845-1.273 0-2.687-.145-4.243-.426-1.698-.284-3.254-.71-5.094-1.138-1.696-.425-3.394-.991-4.951-1.56-1.556-.569-2.971-1.136-3.961-1.703-.424-.142-.707-.286-.99-.71-.282-.426-.282-.71-.282-.995.142-1.275.425-2.27.707-3.12.282-.853.565-1.703.849-2.557.142-.425.142-.71.283-.991.142-.284.142-.568.283-.71l-.143.142c.143-.142.143-.426.283-.71.14-.283.142-.569.283-.851 0-.144 0-.284.141-.429v.287-.285c0-.565.283-.991.851-1.275.564-.284 1.271-.284 2.122-.145.281.144.705.285 1.271.429.566.281 1.132.426 1.839.71.708.281 1.273.566 1.981.709a25.61 25.61 0 0 0 1.556.567c1.414.567 2.687.993 3.962 1.419 1.272.424 2.403.568 3.536.568.565 0 1.132-.145 1.696-.426.566-.284.991-.568 1.415-.994.426-.426.85-.854.99-1.419a4.385 4.385 0 0 0 .425-1.845c0-.429-.142-.853-.425-1.139-.283-.281-.707-.709-1.131-.99-.425-.284-.849-.568-1.274-.71-.424-.143-.848-.429-1.131-.568v.141c-1.132-.565-2.264-.991-3.394-1.42-1.84-.566-3.679-1.276-5.377-1.985-1.839-.71-3.393-1.703-4.808-2.697-1.414-1.135-2.546-2.555-3.536-4.116-.85-1.703-1.273-3.69-1.273-6.103 0-2.555.565-4.968 1.697-6.955 1.132-1.987 2.546-3.832 4.387-5.11 1.839-1.419 3.818-2.413 6.082-3.122 2.264-.71 4.527-1.136 6.93-1.136 1.132 0 2.688.142 4.387.426 1.699.284 3.394.851 4.951 1.561a14.098 14.098 0 0 1 4.101 2.839c1.132 1.135 1.698 2.555 1.698 4.258 0 1.703-.565 3.123-1.839 4.258-1.274 1.135-2.688 1.845-4.527 1.845-.99 0-1.981-.142-2.688-.426-.849-.284-1.696-.567-2.403-.993-.85-.284-1.698-.71-2.548-.994a8.222 8.222 0 0 0-2.689-.426c-.566 0-1.273.284-1.98.71-.708.426-.991 1.136-.991 2.129 0 .568.143.994.426 1.42.282.425.565.709.989.993.426.284.85.568 1.415.71.565.142.99.426 1.414.567.283.142.566.284.85.284l-.283-.142h.283v.142c1.696.852 3.677 1.562 5.799 2.271z" fill="#fff" vectornator:layerName="path"/></g></g></g><path d="M355 88.5h309v48H355v-48z" fill="#d0dd2a" vectornator:layerName="rect"/><g vectornator:layerName="Group 1"><path d="M370.234 113.338c0 1.988.28 3.913.84 5.775.56 1.862 1.393 3.514 2.499 4.956a12.652 12.652 0 0 0 4.137 3.486c1.652.882 3.556 1.323 5.712 1.323 2.156 0 4.053-.434 5.691-1.302a12.6 12.6 0 0 0 4.137-3.486c1.12-1.456 1.96-3.108 2.52-4.956.56-1.848.84-3.766.84-5.754 0-1.96-.28-3.871-.84-5.733-.56-1.862-1.393-3.514-2.499-4.956a12.72 12.72 0 0 0-4.116-3.486c-1.638-.882-3.535-1.323-5.691-1.323-2.156 0-4.06.434-5.712 1.302a12.753 12.753 0 0 0-4.158 3.444c-1.12 1.428-1.96 3.073-2.52 4.935a19.942 19.942 0 0 0-.84 5.775zm3.99.042c0-1.4.161-2.828.483-4.284.322-1.456.84-2.779 1.554-3.969a8.902 8.902 0 0 1 2.814-2.919c1.162-.756 2.569-1.134 4.221-1.134 1.764 0 3.241.378 4.431 1.134a9.085 9.085 0 0 1 2.898 2.94c.742 1.204 1.267 2.562 1.575 4.074.308 1.512.462 3.024.462 4.536 0 1.456-.175 2.898-.525 4.326-.35 1.428-.903 2.709-1.659 3.843a8.926 8.926 0 0 1-2.898 2.751c-1.176.7-2.604 1.05-4.284 1.05-1.652 0-3.059-.378-4.221-1.134a8.902 8.902 0 0 1-2.814-2.919c-.714-1.19-1.232-2.52-1.554-3.99a20.09 20.09 0 0 1-.483-4.305zM402.34 127.03c0 .504.182.938.546 1.302.364.364.798.546 1.302.546s.924-.182 1.26-.546c.336-.364.504-.798.504-1.302v-9.87h5.754a10.41 10.41 0 0 0 3.801-.693 9.55 9.55 0 0 0 3.108-1.932 8.917 8.917 0 0 0 2.079-2.961c.504-1.148.756-2.422.756-3.822 0-.7-.056-1.33-.168-1.89-.252-1.176-.672-2.233-1.26-3.171a9.254 9.254 0 0 0-2.142-2.394 9.302 9.302 0 0 0-2.856-1.512 10.684 10.684 0 0 0-3.36-.525c-1.54 0-3.094.028-4.662.084-1.568.056-3.122 0-4.662-.168v28.854zm3.696-13.146v-12.39h5.502a6.192 6.192 0 0 1 4.41 1.806 6.489 6.489 0 0 1 1.344 1.974 5.93 5.93 0 0 1 .504 2.436c0 .84-.161 1.638-.483 2.394a6.026 6.026 0 0 1-1.344 1.974 6.446 6.446 0 0 1-1.995 1.323 6.046 6.046 0 0 1-2.394.483h-5.544zM427.894 126.526c0 .56.161 1.029.483 1.407.322.378.777.567 1.365.567h13.566v-3.318H431.59V115.06h8.316c.476 0 .875-.161 1.197-.483.322-.322.483-.721.483-1.197 0-.476-.168-.868-.504-1.176a1.738 1.738 0 0 0-1.218-.462h-8.274v-10.164h8.736c.476 0 .882-.161 1.218-.483.336-.322.504-.721.504-1.197 0-.448-.168-.833-.504-1.155a1.646 1.646 0 0 0-1.176-.483H428.86c-.308 0-.616-.028-.924-.084l-.042 28.35zM449.668 128.458l3.612.042v-24.024l16.254 23.646c.364.532.868.798 1.512.798.504 0 .931-.175 1.281-.525.35-.35.525-.777.525-1.281V99.772c0-.504-.175-.945-.525-1.323a1.726 1.726 0 0 0-1.323-.567c-.476 0-.889.196-1.239.588-.35.392-.525.826-.525 1.302l.042 22.512-16.254-23.604c-.364-.532-.868-.798-1.512-.798-.504 0-.938.182-1.302.546a1.778 1.778 0 0 0-.546 1.302v28.728zM493.3 122.62l-1.05 3.57c.616.224 1.372.49 2.268.798.896.308 1.82.602 2.772.882.952.28 1.876.518 2.772.714.896.196 1.652.294 2.268.294 1.288 0 2.52-.259 3.696-.777a10.317 10.317 0 0 0 3.108-2.1 10.25 10.25 0 0 0 2.142-3.066 8.823 8.823 0 0 0 .798-3.717c0-1.064-.21-2.023-.63-2.877a8.237 8.237 0 0 0-1.638-2.268 11.033 11.033 0 0 0-2.31-1.722c-.868-.49-1.75-.903-2.646-1.239a65.483 65.483 0 0 0-2.268-.798c-.84-.28-1.617-.623-2.331-1.029a6.342 6.342 0 0 1-1.806-1.512c-.49-.602-.735-1.365-.735-2.289 0-.644.154-1.232.462-1.764.308-.532.714-.98 1.218-1.344a5.973 5.973 0 0 1 1.659-.84 5.742 5.742 0 0 1 1.785-.294c.672 0 1.281.098 1.827.294.546.196 1.043.406 1.491.63.448.224.861.434 1.239.63.378.196.749.294 1.113.294.448 0 .826-.175 1.134-.525.308-.35.462-.749.462-1.197 0-.588-.287-1.106-.861-1.554-.574-.448-1.253-.812-2.037-1.092a14.36 14.36 0 0 0-2.394-.63c-.812-.14-1.442-.21-1.89-.21-1.148 0-2.268.189-3.36.567a9.423 9.423 0 0 0-2.919 1.617 8.072 8.072 0 0 0-2.058 2.541c-.518.994-.777 2.107-.777 3.339 0 1.596.357 2.863 1.071 3.801a8.435 8.435 0 0 0 2.667 2.289 17.857 17.857 0 0 0 3.465 1.449c1.246.378 2.401.798 3.465 1.26 1.064.462 1.953 1.036 2.667 1.722.714.686 1.071 1.617 1.071 2.793a6.15 6.15 0 0 1-.483 2.436 6.446 6.446 0 0 1-1.323 1.995 6.026 6.026 0 0 1-1.974 1.344 6.15 6.15 0 0 1-2.436.483c-.924 0-1.757-.14-2.499-.42a79.749 79.749 0 0 1-2.331-.924c-.112-.028-.371-.126-.777-.294a41.062 41.062 0 0 0-1.281-.504 31.812 31.812 0 0 1-1.218-.483c-.364-.154-.56-.245-.588-.273zM517.3 113.338c0 1.988.28 3.913.84 5.775.56 1.862 1.393 3.514 2.499 4.956a12.652 12.652 0 0 0 4.137 3.486c1.652.882 3.556 1.323 5.712 1.323 2.156 0 4.053-.434 5.691-1.302a12.6 12.6 0 0 0 4.137-3.486c1.12-1.456 1.96-3.108 2.52-4.956.56-1.848.84-3.766.84-5.754 0-1.96-.28-3.871-.84-5.733-.56-1.862-1.393-3.514-2.499-4.956a12.72 12.72 0 0 0-4.116-3.486c-1.638-.882-3.535-1.323-5.691-1.323-2.156 0-4.06.434-5.712 1.302a12.753 12.753 0 0 0-4.158 3.444c-1.12 1.428-1.96 3.073-2.52 4.935a19.942 19.942 0 0 0-.84 5.775zm3.99.042c0-1.4.161-2.828.483-4.284.322-1.456.84-2.779 1.554-3.969a8.902 8.902 0 0 1 2.814-2.919c1.162-.756 2.569-1.134 4.221-1.134 1.764 0 3.241.378 4.431 1.134a9.085 9.085 0 0 1 2.898 2.94c.742 1.204 1.267 2.562 1.575 4.074.308 1.512.462 3.024.462 4.536 0 1.456-.175 2.898-.525 4.326-.35 1.428-.903 2.709-1.659 3.843a8.926 8.926 0 0 1-2.898 2.751c-1.176.7-2.604 1.05-4.284 1.05-1.652 0-3.059-.378-4.221-1.134a8.902 8.902 0 0 1-2.814-2.919c-.714-1.19-1.232-2.52-1.554-3.99a20.09 20.09 0 0 1-.483-4.305zM549.406 117.79c0 1.708.294 3.248.882 4.62.588 1.372 1.4 2.541 2.436 3.507 1.036.966 2.268 1.708 3.696 2.226 1.428.518 2.968.777 4.62.777 1.68 0 3.227-.259 4.641-.777 1.414-.518 2.646-1.26 3.696-2.226 1.05-.966 1.869-2.135 2.457-3.507.588-1.372.882-2.912.882-4.62V99.814c0-.504-.182-.938-.546-1.302-.364-.364-.784-.546-1.26-.546-.532 0-.966.182-1.302.546a1.854 1.854 0 0 0-.504 1.302v18.018c0 1.204-.196 2.296-.588 3.276-.392.98-.938 1.813-1.638 2.499-.7.686-1.547 1.218-2.541 1.596-.994.378-2.079.567-3.255.567-1.204 0-2.303-.189-3.297-.567-.994-.378-1.841-.91-2.541-1.596s-1.246-1.519-1.638-2.499c-.392-.98-.588-2.072-.588-3.276V98.134h-3.612v19.656zM578.488 127.03c0 .504.175.945.525 1.323.35.378.791.567 1.323.567.476 0 .896-.182 1.26-.546.364-.364.546-.784.546-1.26v-11.97l12.936 14.364 2.73-2.268-11.424-12.138c.224.056.434.084.63.084h.588c1.232 0 2.408-.168 3.528-.504 1.12-.336 2.1-.84 2.94-1.512a7.497 7.497 0 0 0 2.016-2.499c.504-.994.756-2.149.756-3.465 0-1.344-.238-2.569-.714-3.675a8.112 8.112 0 0 0-1.974-2.814 9.194 9.194 0 0 0-2.961-1.806c-1.134-.434-2.359-.651-3.675-.651-1.512 0-3.017.021-4.515.063a37.522 37.522 0 0 1-4.515-.147v28.854zm3.654-14.784V101.62h5.25c.756 0 1.484.14 2.184.42.7.28 1.309.665 1.827 1.155s.931 1.071 1.239 1.743c.308.672.462 1.4.462 2.184 0 .728-.14 1.4-.42 2.016a5.458 5.458 0 0 1-1.113 1.617 5.088 5.088 0 0 1-1.638 1.092 5.077 5.077 0 0 1-1.995.399h-5.796zM602.74 113.674a19 19 0 0 0 .882 5.796c.588 1.848 1.456 3.472 2.604 4.872 1.148 1.4 2.562 2.513 4.242 3.339 1.68.826 3.598 1.239 5.754 1.239 1.26 0 2.569-.147 3.927-.441 1.358-.294 2.569-.805 3.633-1.533.392-.28.791-.595 1.197-.945s.609-.805.609-1.365c0-.476-.154-.896-.462-1.26a1.473 1.473 0 0 0-1.176-.546c-.308 0-.672.14-1.092.42-.42.28-.931.588-1.533.924-.602.336-1.316.644-2.142.924-.826.28-1.785.42-2.877.42-1.68 0-3.136-.35-4.368-1.05a9.183 9.183 0 0 1-3.045-2.772c-.798-1.148-1.386-2.45-1.764-3.906a17.482 17.482 0 0 1-.567-4.41c0-1.428.182-2.863.546-4.305.364-1.442.924-2.744 1.68-3.906a9.185 9.185 0 0 1 2.898-2.835c1.176-.728 2.59-1.092 4.242-1.092.812 0 1.533.077 2.163.231.63.154 1.218.371 1.764.651s1.064.637 1.554 1.071c.49.434 1.015.917 1.575 1.449l2.1-1.89a7.383 7.383 0 0 0-1.575-2.1 9.791 9.791 0 0 0-2.205-1.554 11.877 11.877 0 0 0-2.541-.966 10.472 10.472 0 0 0-2.583-.336c-2.268 0-4.242.441-5.922 1.323-1.68.882-3.073 2.058-4.179 3.528-1.106 1.47-1.939 3.164-2.499 5.082a21.096 21.096 0 0 0-.84 5.943zM631.234 126.526c0 .56.161 1.029.483 1.407.322.378.777.567 1.365.567h13.566v-3.318H634.93V115.06h8.316c.476 0 .875-.161 1.197-.483.322-.322.483-.721.483-1.197 0-.476-.168-.868-.504-1.176a1.738 1.738 0 0 0-1.218-.462h-8.274v-10.164h8.736c.476 0 .882-.161 1.218-.483.336-.322.504-.721.504-1.197 0-.448-.168-.833-.504-1.155a1.646 1.646 0 0 0-1.176-.483H632.2c-.308 0-.616-.028-.924-.084l-.042 28.35z"/></g></g></svg>