<svg viewBox="0 0 141.7 141.7" width="100" height="100" xmlns="http://www.w3.org/2000/svg">
  <defs></defs>
  <path fill="#D0DD2A" d="M 122.792 103.804 C 118.157 100.135 113.715 96.465 109.274 92.604 C 107.343 91.058 107.343 90.865 108.501 88.741 C 111.205 83.913 113.137 79.086 114.295 73.678 C 116.032 65.569 115.839 57.458 113.137 49.347 C 112.171 46.644 111.01 44.326 109.467 42.009 C 109.081 41.237 108.694 40.657 109.467 39.885 C 111.591 37.761 113.522 35.443 115.839 33.126 C 119.122 29.843 122.406 26.561 125.496 23.084 C 128.778 19.223 128.006 14.588 123.76 12.078 C 122.407 11.305 121.246 10.725 119.897 9.954 C 116.614 8.215 113.138 8.408 109.855 9.761 C 107.152 10.919 105.221 12.85 103.29 14.974 L 91.894 25.981 C 91.122 26.368 90.929 26.561 90.348 26.561 C 89.577 26.561 88.997 26.368 88.224 26.174 C 59.836 21.733 43.81 38.34 43.81 38.34 C 43.231 39.113 42.456 38.92 41.686 38.34 C 39.756 36.796 37.629 35.25 35.698 33.706 C 32.61 31.195 30.292 30.809 26.817 32.933 C 24.693 34.285 23.341 36.409 21.603 38.147 C 20.83 39.113 20.057 40.078 19.479 41.237 C 17.74 44.134 17.933 47.223 20.249 49.733 C 22.376 51.857 24.5 53.789 26.626 55.913 C 27.398 56.685 27.592 57.458 27.01 58.23 C 26.239 59.582 25.661 60.934 25.078 62.092 C 20.057 73.486 18.706 85.072 22.764 97.045 C 23.342 98.783 22.957 99.942 21.798 101.1 C 18.32 104.77 14.846 107.86 12.143 111.721 C 9.63 115.004 9.63 118.866 11.949 122.149 C 12.722 123.307 13.687 124.467 14.653 125.625 C 17.163 128.522 21.217 128.715 24.113 126.011 C 27.205 123.307 29.907 120.217 32.803 117.515 C 36.281 114.232 35.123 114.232 39.562 116.549 C 46.707 120.025 54.239 121.183 61.962 120.604 C 70.266 119.832 77.796 116.935 85.135 112.879 C 87.26 111.721 87.451 111.721 89.19 113.459 L 92.28 116.163 C 95.177 118.866 98.074 121.57 101.166 124.08 C 105.221 127.557 111.401 127.749 115.649 124.66 C 118.546 122.536 121.056 120.217 123.566 117.708 C 127.426 113.652 127.426 107.473 122.792 103.804 M 82.239 89.707 C 71.617 100.715 52.693 104.77 42.845 93.955 C 32.416 82.755 36.086 68.465 43.617 58.23 C 51.147 47.996 69.88 36.988 84.363 48.189 C 98.074 58.81 92.86 78.699 82.239 89.707" style=""></path>
</svg>
